<svg width="24" height="24" viewBox="0 0 24 24" fill="none" xmlns="http://www.w3.org/2000/svg">
    <path d="M11.0435 4.27925L2.2911 12.9523C1.4648 13.7711 1.00006 14.8822 1.00006 16.0412C1.00006 17.2002 1.4648 18.3112 2.2911 19.13L3.89094 20.7207C4.71725 21.5395 5.83847 22 7.00807 22C8.17768 22 9.2989 21.5395 10.1252 20.7207L21.5611 9.38852C22.181 8.77419 22.5298 7.94 22.5298 7.07143C22.5298 6.20286 22.181 5.36867 21.5611 4.75433L20.7594 3.95995C20.1395 3.34562 19.2976 3 18.4211 3C17.5446 3 16.7028 3.34562 16.0828 3.95995L5.82751 14.1222C5.4139 14.5321 5.18199 15.0876 5.18199 15.6667C5.18199 16.2457 5.4139 16.8012 5.82751 17.2111L5.8684 17.2471C6.28201 17.657 6.84262 17.8868 7.42697 17.8868C8.01131 17.8868 8.57192 17.657 8.98553 17.2471L16.5574 9.74394" stroke="#FF0028" stroke-width="2" stroke-linecap="round" stroke-linejoin="round"/>
</svg>
